<svg
	width="100"
	height="100"
	viewBox="0 0 26.458333 26.458334"
	version="1.1"
	id="svg5"
	xmlns="http://www.w3.org/2000/svg"
	xmlns:svg="http://www.w3.org/2000/svg"
>
	<defs id="defs2">
		<clipPath clipPathUnits="userSpaceOnUse" id="clipPath854">
			<path d="M 0,340 H 320 V 0 H 0 Z" id="path852"></path>
		</clipPath>
		<clipPath clipPathUnits="userSpaceOnUse" id="clipPath906">
			<path d="M 0,340 H 320 V 0 H 0 Z" id="path904"></path>
		</clipPath>
	</defs>
	<g
		id="layer1"
		transform="matrix(0.40048225,0,0,0.40048225,0.08076858,-0.03911425)"
		style="fill:#ffffff"
	>
		<g
			id="g2705"
			transform="matrix(1.0501854,0,0,1.0501854,-1.2712063,-0.00249518)"
			style="fill:#ffffff"
		>
			<g
				id="g908"
				transform="matrix(0.2005231,0,0,-0.20052225,17.351676,50.614783)"
				style="fill:#ffffff;fill-opacity:1"
			>
				<path
					d="m 0,0 v -0.61 h -0.997 c -1.719,0 -3.122,-1.2 -3.228,-2.881 v -24.13 c 0,-9.568 -6.594,-15.946 -16.483,-15.946 -10.174,0 -16.957,6.335 -16.957,15.84 v 24.095 c -0.033,1.755 -1.466,3.022 -3.233,3.022 h -0.996 V 0 h 12.419 v -0.61 h -0.996 c -1.735,0 -3.149,-1.223 -3.224,-2.93 v -23.29 c 0,-8.891 5.193,-14.816 12.983,-14.816 8.169,0 13.614,5.611 13.628,14.028 v 24.07 c -0.076,1.712 -1.491,2.938 -3.229,2.938 H -11.31 V 0 Z"
					style="fill:#ffffff;fill-opacity:1;fill-rule:nonzero;stroke:none"
					id="path910"></path>
			</g>
			<g
				id="g912"
				transform="matrix(0.2005231,0,0,-0.20052225,27.568428,50.614783)"
				style="fill:#ffffff;fill-opacity:1"
			>
				<path
					d="m 0,0 -0.009,-0.61 h -1.129 c -2.045,0 -3.708,-1.622 -3.773,-3.647 v -31.526 c 0,-3.932 0.557,-7.786 0.557,-7.786 h -0.554 l -33.348,35.497 v -30.382 c 0.064,-2.027 1.727,-3.652 3.773,-3.652 h 1.129 l 0.009,-0.609 H -45.94 l 0.009,0.609 h 1.129 c 2.062,0 3.735,1.648 3.775,3.696 v 31.701 c 0,4.166 -0.564,7.622 -0.564,7.622 h 0.603 l 33.299,-35.482 v 30.261 c -0.039,2.049 -1.711,3.699 -3.774,3.699 h -1.129 l -0.009,0.611 z"
					style="fill:#ffffff;fill-opacity:1;fill-rule:nonzero;stroke:none"
					id="path914"></path>
			</g>
			<g
				id="g916"
				transform="matrix(0.2005231,0,0,-0.20052225,31.413078,59.17969)"
				style="fill:#ffffff;fill-opacity:1"
			>
				<path
					d="m 0,0 h -13.378 l 0.009,0.61 h 0.774 c 2.14,0 3.876,1.712 3.917,3.837 v 33.849 c -0.053,2.114 -1.785,3.811 -3.916,3.811 h -0.773 l -0.01,0.611 h 13.376 l -0.01,-0.611 h -0.773 c -2.128,0 -3.856,-1.69 -3.916,-3.798 V 4.447 C -4.66,2.322 -2.923,0.61 -0.783,0.61 h 0.773 z"
					style="fill:#ffffff;fill-opacity:1;fill-rule:nonzero;stroke:none"
					id="path918"></path>
			</g>
			<g
				id="g920"
				transform="matrix(0.2005231,0,0,-0.20052225,37.924664,50.750657)"
				style="fill:#ffffff;fill-opacity:1"
			>
				<path
					d="m 0,0 v -1.054 -4.049 l -0.611,0.006 v 0.899 c 0,1.643 -1.319,2.975 -2.959,3.008 h -12.935 v -18.865 h 10.334 c 1.638,0.032 2.957,1.364 2.957,3.007 v 0.899 l 0.598,0.008 v -9.657 l -0.598,0.007 v 0.898 c 0,1.622 -1.284,2.943 -2.893,3.005 H -16.504 V -37.59 c 0.04,-2.126 1.777,-3.837 3.917,-3.837 h 0.773 l 0.01,-0.61 h -13.377 l 0.009,0.61 h 0.774 c 2.14,0 3.876,1.711 3.917,3.837 v 34.166 c 0,1.964 -1.871,3.494 -3.895,3.494 h -0.774 l -0.009,0.608 h 17.868 c 2.635,0.024 6.156,0.631 7.289,1.109 z"
					style="fill:#ffffff;fill-opacity:1;fill-rule:nonzero;stroke:none"
					id="path922"></path>
			</g>
			<g
				id="g924"
				transform="matrix(0.2005231,0,0,-0.20052225,44.59296,59.180011)"
				style="fill:#ffffff;fill-opacity:1"
			>
				<path
					d="m 0,0 h -25.349 l 0.01,0.61 h 0.774 c 2.14,0 3.876,1.712 3.916,3.837 v 34.166 c -0.208,1.964 -1.871,3.496 -3.895,3.496 h -0.774 l -0.01,0.606 h 17.87 c 2.635,0.026 6.155,0.633 7.289,1.109 V 42.039 41.021 36.12 l -0.618,0.009 v 1.088 c 0,1.935 -1.513,3.516 -3.423,3.632 H -16.676 V 21.984 h 10.333 c 1.638,0.031 2.957,1.364 2.957,3.005 v 0.9 l 0.598,0.007 v -9.657 l -0.598,0.009 v 0.898 c 0,1.622 -1.284,2.941 -2.893,3.005 H -16.676 V 1.867 h 8.769 c 6.479,0 8.967,3.346 10.855,7.991 h 0.611 z"
					style="fill:#ffffff;fill-opacity:1;fill-rule:nonzero;stroke:none"
					id="path926"></path>
			</g>
			<g
				id="g928"
				transform="matrix(0.2005231,0,0,-0.20052225,50.35824,55.571513)"
				style="fill:#ffffff;fill-opacity:1"
			>
				<path
					d="m 0,0 c 2.444,-2.252 3.071,-4.974 3.071,-7.439 0,-6.75 -4.417,-11.411 -11.449,-11.411 -2.996,0 -7.949,0.854 -10.352,3.334 -0.455,1.884 -0.225,5.771 0.707,8.508 h 0.537 c -0.614,-6.289 3.374,-10.312 8.816,-10.01 4.464,0.247 8.195,3.299 8.195,8.177 0,2.384 -0.872,4.271 -2.4,5.685 L -14.588,7.699 c -2.473,2.254 -3.313,5.2 -3.313,7.562 0,5.144 3.775,10.312 10.745,10.312 1.606,0 3.621,-0.273 5.244,-0.626 H 0.511 V 24.223 17.46 h -0.589 c 0.015,3.904 -3.069,6.284 -6.879,6.284 -4.506,0 -7.52,-3.3 -7.52,-7.019 0,-1.59 0.535,-3.844 2.461,-5.625 z"
					style="fill:#ffffff;fill-opacity:1;fill-rule:nonzero;stroke:none"
					id="path930"></path>
			</g>
			<g
				id="g932"
				transform="matrix(0.2005231,0,0,-0.20052225,55.608375,50.615104)"
				style="fill:#ffffff;fill-opacity:1"
			>
				<path
					d="m 0,0 c 7.818,0 12.608,-4.478 12.608,-11.784 0,-9.302 -10.115,-14.254 -17.787,-10.218 l -0.008,0.576 c 0,0 10.059,-2.165 12.819,6.575 0.272,0.859 0.428,2.33 0.391,3.681 -0.152,5.604 -3.043,9.34 -8.243,9.34 h -7.049 v -36.436 c 0.04,-2.126 1.776,-3.838 3.916,-3.838 h 0.774 l 0.009,-0.609 h -13.385 l 0.01,0.609 h 0.774 c 2.14,0 3.876,1.712 3.919,3.838 v 34.145 c -0.199,1.974 -1.866,3.515 -3.898,3.515 h -0.773 l -0.01,0.608 z"
					style="fill:#ffffff;fill-opacity:1;fill-rule:nonzero;stroke:none"
					id="path934"></path>
			</g>
			<g
				id="g936"
				transform="matrix(0.2005231,0,0,-0.20052225,15.850259,27.497395)"
				style="fill:#ffffff;fill-opacity:1"
			>
				<path
					d="m 0,0 c 9.962,-1.124 18.109,-4.751 24.444,-10.881 6.744,-6.54 10.115,-14.56 10.115,-24.061 v -0.23 c 0,-9.707 -3.321,-17.854 -9.962,-24.445 -6.693,-6.642 -14.84,-9.962 -24.445,-9.962 -9.706,0 -17.854,3.32 -24.443,9.962 -6.744,6.845 -10.115,14.891 -10.115,24.138 v 0.996 l 12.26,5.364 v -6.59 c 0,-6.131 2.196,-11.34 6.59,-15.632 4.392,-4.343 9.629,-6.514 15.708,-6.514 6.182,0 11.444,2.171 15.786,6.514 4.342,4.393 6.513,9.629 6.513,15.708 0,6.386 -2.094,11.572 -6.282,15.556 -4.803,4.546 -10.039,7.023 -15.71,7.434 -9.707,0.766 -17.318,3.908 -22.835,9.424 -5.722,5.672 -8.583,12.516 -8.583,20.537 0,8.071 2.81,14.891 8.43,20.459 5.619,5.62 12.414,8.43 20.383,8.43 8.071,0 14.891,-2.81 20.459,-8.43 5.671,-5.721 8.506,-12.516 8.506,-20.382 v -0.767 l -12.26,-5.517 v 6.054 c -0.103,4.75 -1.737,8.684 -4.904,11.8 -3.321,3.269 -7.255,4.904 -11.801,4.904 -4.547,0 -8.404,-1.583 -11.571,-4.75 -3.27,-3.321 -4.904,-7.255 -4.904,-11.801 0,-4.547 1.634,-8.455 4.904,-11.725 C -10.652,2.528 -6.08,0.664 0,0"
					style="fill:#ffffff;fill-opacity:1;fill-rule:nonzero;stroke:none"
					id="path938"></path>
			</g>
			<g
				id="g940"
				transform="matrix(0.2005231,0,0,-0.20052225,26.606098,34.611764)"
				style="fill:#ffffff;fill-opacity:1"
			>
				<path
					d="m 0,0 v 76.322 l 12.261,5.364 V -0.23 c 0.05,-6.131 2.248,-11.34 6.59,-15.632 4.393,-4.342 9.628,-6.514 15.709,-6.514 6.13,0 11.391,2.172 15.785,6.514 4.341,4.292 6.514,9.426 6.514,15.403 V -0.23 76.322 L 69.12,81.686 V 0 c 0,-9.4 -3.373,-17.433 -10.115,-24.099 -6.745,-6.667 -14.893,-10 -24.445,-10 -9.554,0 -17.701,3.333 -24.445,10 C 3.372,-17.433 0,-9.4 0,0"
					style="fill:#ffffff;fill-opacity:1;fill-rule:nonzero;stroke:none"
					id="path942"></path>
			</g>
			<g
				id="g944"
				transform="matrix(0.2005231,0,0,-0.20052225,46.735389,28.618976)"
				style="fill:#ffffff;fill-opacity:1"
			>
				<path
					d="m 0,0 h 44.597 v 17.931 c -0.051,6.13 -2.248,11.34 -6.59,15.631 -4.393,4.342 -9.63,6.514 -15.708,6.514 -6.13,0 -11.392,-2.172 -15.786,-6.514 C 2.17,29.271 0,24.138 0,18.161 v -0.23 z m -12.261,-63.985 v 81.686 c 0,9.399 3.371,17.432 10.115,24.1 C 4.597,48.467 12.745,51.8 22.299,51.8 31.85,51.8 40,48.467 46.743,41.801 53.487,35.133 56.858,27.1 56.858,17.701 v -76.322 l -12.261,-5.364 v 51.724 H 0 v -46.36 z"
					style="fill:#ffffff;fill-opacity:1;fill-rule:nonzero;stroke:none"
					id="path946"></path>
			</g>
			<g
				id="g948"
				transform="matrix(0.2005231,0,0,-0.20052225,59.715068,47.445208)"
				style="fill:#ffffff;fill-opacity:1"
			>
				<path
					d="m 0,0 h -264.308 l 3.256,7.298 H 3.278 Z"
					style="fill:#ffffff;fill-opacity:1;fill-rule:nonzero;stroke:none"
					id="path950"></path>
			</g>
			<g
				id="g952"
				transform="matrix(0.2005231,0,0,-0.20052225,50.974086,61.58704)"
				style="fill:#ffffff;fill-opacity:1"
			>
				<path
					d="m 0,0 h -70.601 -31.625 -3.951 -102.226 l -1.307,-2.931 h 102.225 3.943 31.634 70.591 35.577 L 35.576,0 Z"
					style="fill:#ffffff;fill-opacity:1;fill-rule:nonzero;stroke:none"
					id="path954"></path>
			</g>
			<g
				id="g1068"
				transform="matrix(0.2005231,0,0,-0.20052225,62.608075,15.644425)"
				style="fill:#ffffff;fill-opacity:1"
			>
				<path
					d="M 0,0 -28.413,11.365 -144.942,57.977 -289.884,0 -300,9.754 -147.329,70.863 c 1.533,0.613 3.241,0.613 4.773,0 L -7.509,16.844 Z"
					style="fill:#ffffff;fill-opacity:1;fill-rule:nonzero;stroke:none"
					id="path1070"></path>
			</g>
		</g>
	</g>
</svg>
